<svg width="358" height="138" version="1" xmlns="http://www.w3.org/2000/svg"><g fill="none" fill-rule="evenodd"><path d="M9 99c22-3 12 0 31-5 12-17 28-32 42-45 4-3 8-11 15-8-12 16-38 29-39 51 32-2 70 0 105 20-4 4-9-2-12-3-30-9-56-10-83-5l-67 8c0-8 2-12 8-13z" fill="#B07E48"/><path d="M90 18c37-22 51-17 51-17s-9 34-25 45c-16 12-33 9-33 9s-9-28 7-37M174 97c24 17 25 31 25 31s-25 14-37 7c-12-6-12-26-12-26s13-20 24-12" fill="#3EA85B"/><path d="M158 38c4-1 8-4 11-6l3-7c0-2-1-3-2-3-4 0-8 6-12 16zm1 43c-5 0-11-2-11-15 0-7 1-15 4-22h-5c-2 0-2-1-2-2 0 0 0-2 2-2l6-1c2-6 8-21 17-21 4 0 6 2 6 6 0 5-3 8-5 10-4 5-9 7-14 8-3 7-5 17-5 24s2 12 7 12c4 0 10-9 10-19 0-4-1-8-5-8l-4 2-2 1-2-2c0-2 3-5 9-5 5 0 9 5 9 12 0 11-8 22-15 22zm25-5c2-13 4-24 14-25l2-2-2-2c-5 0-10 3-12 9 0-4-3-8-5-8l-2 2 1 2c1 1 2 3 2 7l-3 20 2 2 2-2 1-3zm34-29c-11 0-18 14-18 24 0 7 4 10 8 10 7 0 10-7 10-8l-2-2-2 1c-1 2-3 5-5 5-3 0-4-3-4-6 0-9 5-20 12-20 3 0 5 2 5 6l-1 11-1 8c0 2 1 5 3 5l2-2v-2-1-8l2-11c0-7-4-10-9-10zm34 1c-4 0-8 3-10 9 0-6-2-10-4-10l-2 2v2l2 6-2 11-2 10c0 1 0 2 2 2l2-1c3-16 9-27 14-27 3 0 4 4 4 9 0 6-2 13-3 17 0 1 1 2 3 2l2-2 2-17c0-12-5-13-8-13zm38 3c0-2-2-4-6-4-10 0-16 11-16 21 0 9 4 13 10 13 7 0 12-6 12-8l-2-2-2 1c-2 4-5 5-8 5-2 0-6-1-6-9 0-7 4-17 11-17l4 2 2 1 2-2-1-1zm10 29l-2-1v-8c0-11 2-23 3-27h-3c-1 0-4 0-4-2 0-1 1-2 3-2h5c3-10 9-21 16-21 4 0 7 3 7 7 0 8-10 15-20 17l-3 20c3-10 9-16 14-16 7 0 7 10 7 14l-2 17-2 2-2-2v-1l2-16c0-7-1-9-4-9-6 0-14 16-13 26 1 1 0 2-2 2zm18-57c-3 0-8 7-11 16 7-3 14-9 14-13 0-2-1-3-3-3zm20 27l-2 17c0 3 0 9 3 9 6 0 13-15 13-26 0-2 1-2 2-2 2 0 2 1 2 2l-1 18-3 20c3 2 5 5 5 9 0 1 0 2-2 2l-2-2c0-3-2-4-3-5-4 11-13 18-22 18-5 0-9-2-9-8 0-10 13-16 23-16l6 1 3-19c-2 7-7 12-12 12-6 0-8-6-8-13l2-17c1-1 1-2 3-2l2 2zm-9 56c6 0 14-6 18-16h-5c-8 0-18 5-18 12 0 3 2 4 5 4z" fill="#89551D"/></g></svg>
